<svg width="22" height="20" viewBox="0 0 22 20" fill="none" xmlns="http://www.w3.org/2000/svg">
<path d="M19.8382 2.60987C19.3274 2.09888 18.721 1.69352 18.0535 1.41696C17.3861 1.14039 16.6707 0.998047 15.9482 0.998047C15.2257 0.998047 14.5103 1.14039 13.8428 1.41696C13.1754 1.69352 12.5689 2.09888 12.0582 2.60987L10.9982 3.66987L9.93817 2.60987C8.90647 1.57818 7.5072 0.998582 6.04817 0.998582C4.58913 0.998582 3.18986 1.57818 2.15817 2.60987C1.12647 3.64156 0.546875 5.04084 0.546875 6.49987C0.546875 7.95891 1.12647 9.35818 2.15817 10.3899L3.21817 11.4499L10.9982 19.2299L18.7782 11.4499L19.8382 10.3899C20.3492 9.87912 20.7545 9.27269 21.0311 8.60523C21.3076 7.93777 21.45 7.22236 21.45 6.49987C21.45 5.77738 21.3076 5.06198 21.0311 4.39452C20.7545 3.72706 20.3492 3.12063 19.8382 2.60987V2.60987Z" fill="#E43232"/>
</svg>
