<svg width="159" height="70" viewBox="0 0 159 70" fill="none" xmlns="http://www.w3.org/2000/svg">
<path d="M45.35 5.55C46.2833 5.68333 46.9167 5.96666 47.25 6.4C47.6167 6.83333 47.8 7.4 47.8 8.1C47.8 10.4 46.5667 11.4667 44.1 11.3L42.35 11.15C40.3833 10.9833 38.4167 10.85 36.45 10.75C34.5167 10.65 32.4833 10.6 30.35 10.6H28.1C27.7 15.5333 27.2833 20.0333 26.85 24.1L35.45 23.95C36.6833 23.95 37.5 24.1667 37.9 24.6C38.3333 25.0333 38.55 25.6167 38.55 26.35C38.55 27.4833 38.2167 28.3833 37.55 29.05C36.8833 29.6833 35.9333 30 34.7 30H26.15L25.85 32.15C25.15 37.65 23.65 41.5667 21.35 43.9C19.0833 46.2333 15.95 47.4 11.95 47.4C9.68333 47.4 7.6 46.9167 5.7 45.95C3.8 44.95 2.4 43.75 1.5 42.35C1.13333 41.7833 0.95 41.1 0.95 40.3C0.95 39.5 1.13333 38.8 1.5 38.2C1.9 37.6 2.38333 37.3 2.95 37.3C3.35 37.3 3.73333 37.4333 4.1 37.7C4.5 37.9667 5 38.4833 5.6 39.25C7.2 41.35 9.18333 42.4 11.55 42.4C13.45 42.4 15.0333 41.6333 16.3 40.1C17.6 38.5333 18.4333 36.0833 18.8 32.75L19.1 30H16.7C15.9333 30 15.2667 29.7833 14.7 29.35C14.1667 28.9167 13.9 28.3 13.9 27.5C13.9 26.4667 14.1667 25.6833 14.7 25.15C15.2333 24.5833 16.0167 24.3 17.05 24.3C17.9833 24.3 18.9 24.2833 19.8 24.25C20.2 20.5833 20.6333 16.1333 21.1 10.9C17.5 11.2333 14.9667 11.8167 13.5 12.65C12.0333 13.4833 11.3 14.7167 11.3 16.35C11.3 17.4833 11.6333 18.5667 12.3 19.6C12.5 19.9 12.6 20.2 12.6 20.5C12.6 21.1 12.2667 21.6333 11.6 22.1C10.9333 22.5333 10.1833 22.75 9.35 22.75C8.45 22.75 7.68333 22.4833 7.05 21.95C6.65 21.6167 6.26667 20.9333 5.9 19.9C5.53333 18.8667 5.35 17.7167 5.35 16.45C5.35 12.3167 7.46667 9.31667 11.7 7.45C15.9667 5.58333 22.1833 4.65 30.35 4.65C36.0167 4.65 41.0167 4.95 45.35 5.55ZM64.0074 31.65C64.4408 31.65 64.7741 31.8667 65.0074 32.3C65.2408 32.7333 65.3574 33.2833 65.3574 33.95C65.3574 35.55 64.8741 36.5 63.9074 36.8C61.9074 37.5 59.7074 37.9 57.3074 38C56.6741 40.8 55.4241 43.05 53.5574 44.75C51.6908 46.4167 49.5741 47.25 47.2074 47.25C45.2074 47.25 43.4908 46.7667 42.0574 45.8C40.6574 44.8333 39.5908 43.55 38.8574 41.95C38.1241 40.35 37.7574 38.6167 37.7574 36.75C37.7574 34.2167 38.2408 31.9667 39.2074 30C40.1741 28 41.5074 26.45 43.2074 25.35C44.9074 24.2167 46.7908 23.65 48.8574 23.65C51.3908 23.65 53.4241 24.5333 54.9574 26.3C56.5241 28.0333 57.4408 30.1833 57.7074 32.75C59.2741 32.65 61.1408 32.3167 63.3074 31.75C63.5741 31.6833 63.8074 31.65 64.0074 31.65ZM47.6074 41.95C48.6741 41.95 49.5908 41.5167 50.3574 40.65C51.1574 39.7833 51.6908 38.5333 51.9574 36.9C50.9241 36.2 50.1241 35.2833 49.5574 34.15C49.0241 33.0167 48.7574 31.8167 48.7574 30.55C48.7574 30.0167 48.8074 29.4833 48.9074 28.95H48.6574C47.3241 28.95 46.2074 29.6 45.3074 30.9C44.4408 32.1667 44.0074 33.9667 44.0074 36.3C44.0074 38.1333 44.3574 39.5333 45.0574 40.5C45.7908 41.4667 46.6408 41.95 47.6074 41.95ZM86.566 31.65C86.9994 31.65 87.3327 31.8667 87.566 32.3C87.7994 32.7333 87.916 33.2833 87.916 33.95C87.916 35.55 87.4327 36.5 86.466 36.8C84.466 37.5 82.266 37.9 79.866 38C79.2327 40.8 77.9827 43.05 76.116 44.75C74.2493 46.4167 72.1327 47.25 69.766 47.25C67.766 47.25 66.0493 46.7667 64.616 45.8C63.216 44.8333 62.1493 43.55 61.416 41.95C60.6827 40.35 60.316 38.6167 60.316 36.75C60.316 34.2167 60.7993 31.9667 61.766 30C62.7327 28 64.066 26.45 65.766 25.35C67.466 24.2167 69.3493 23.65 71.416 23.65C73.9494 23.65 75.9827 24.5333 77.516 26.3C79.0827 28.0333 79.9993 30.1833 80.266 32.75C81.8327 32.65 83.6994 32.3167 85.866 31.75C86.1327 31.6833 86.366 31.65 86.566 31.65ZM70.166 41.95C71.2327 41.95 72.1494 41.5167 72.916 40.65C73.716 39.7833 74.2493 38.5333 74.516 36.9C73.4827 36.2 72.6827 35.2833 72.116 34.15C71.5827 33.0167 71.316 31.8167 71.316 30.55C71.316 30.0167 71.366 29.4833 71.466 28.95H71.216C69.8827 28.95 68.766 29.6 67.866 30.9C66.9993 32.1667 66.566 33.9667 66.566 36.3C66.566 38.1333 66.916 39.5333 67.616 40.5C68.3493 41.4667 69.1993 41.95 70.166 41.95ZM112.025 35.85C112.458 35.85 112.791 36.05 113.025 36.45C113.291 36.85 113.425 37.4 113.425 38.1C113.425 39.4333 113.108 40.4667 112.475 41.2C111.108 42.8667 109.608 44.3 107.975 45.5C106.341 46.6667 104.725 47.25 103.125 47.25C100.591 47.25 98.6579 45.7667 97.3246 42.8C95.9246 44.5667 94.6913 45.75 93.6246 46.35C92.5913 46.95 91.3746 47.25 89.9746 47.25C87.9413 47.25 86.2579 46.5 84.9246 45C83.6246 43.4667 82.9746 41.4833 82.9746 39.05C82.9746 36.3833 83.5413 33.9167 84.6746 31.65C85.8079 29.35 87.3579 27.4833 89.3246 26.05C91.3246 24.5833 93.5579 23.7167 96.0246 23.45C96.6579 16.9833 97.8579 11.4667 99.6246 6.9C101.425 2.3 103.775 -2.86102e-06 106.675 -2.86102e-06C108.108 -2.86102e-06 109.291 0.649998 110.225 1.95C111.191 3.25 111.675 5.21666 111.675 7.85C111.675 11.5833 110.758 15.95 108.925 20.95C107.091 25.95 104.641 31.0833 101.575 36.35C101.708 38.2833 101.991 39.6667 102.425 40.5C102.891 41.3333 103.475 41.75 104.175 41.75C105.075 41.75 105.991 41.35 106.925 40.55C107.858 39.75 109.108 38.4167 110.675 36.55C111.075 36.0833 111.525 35.85 112.025 35.85ZM106.125 4.9C105.491 4.9 104.858 6.03333 104.225 8.3C103.591 10.5333 103.041 13.4667 102.575 17.1C102.141 20.7333 101.825 24.5333 101.625 28.5C105.358 20.3667 107.225 13.8333 107.225 8.9C107.225 7.63333 107.108 6.65 106.875 5.95C106.675 5.25 106.425 4.9 106.125 4.9ZM91.7246 42.2C92.3579 42.2 92.9913 41.95 93.6246 41.45C94.2579 40.9167 95.0579 39.95 96.0246 38.55C95.6913 36.75 95.5246 34.7333 95.5246 32.5C95.5246 31.7 95.5579 30.4 95.6246 28.6C93.7913 29.1667 92.2579 30.4 91.0246 32.3C89.8246 34.1667 89.2246 36.25 89.2246 38.55C89.2246 40.9833 90.0579 42.2 91.7246 42.2ZM115.907 20.4C114.507 20.4 113.457 20.0833 112.757 19.45C112.057 18.7833 111.707 17.8667 111.707 16.7C111.707 15.5333 112.157 14.5667 113.057 13.8C113.99 13 115.14 12.6 116.507 12.6C117.74 12.6 118.74 12.9 119.507 13.5C120.274 14.1 120.657 14.95 120.657 16.05C120.657 17.3833 120.224 18.45 119.357 19.25C118.49 20.0167 117.34 20.4 115.907 20.4ZM115.507 47.25C113.34 47.25 111.757 46.4833 110.757 44.95C109.79 43.4167 109.307 41.3833 109.307 38.85C109.307 37.35 109.49 35.4333 109.857 33.1C110.257 30.7333 110.757 28.5333 111.357 26.5C111.657 25.4333 112.057 24.7 112.557 24.3C113.057 23.9 113.857 23.7 114.957 23.7C116.657 23.7 117.507 24.2667 117.507 25.4C117.507 26.2333 117.19 28.1667 116.557 31.2C115.757 34.8667 115.357 37.35 115.357 38.65C115.357 39.65 115.49 40.4167 115.757 40.95C116.024 41.4833 116.474 41.75 117.107 41.75C117.707 41.75 118.457 41.3333 119.357 40.5C120.257 39.6667 121.457 38.35 122.957 36.55C123.357 36.0833 123.807 35.85 124.307 35.85C124.74 35.85 125.074 36.05 125.307 36.45C125.574 36.85 125.707 37.4 125.707 38.1C125.707 39.4333 125.39 40.4667 124.757 41.2C121.457 45.2333 118.374 47.25 115.507 47.25ZM141.123 33C142.057 33 142.523 33.7 142.523 35.1C142.523 37.7333 140.457 39.05 136.323 39.05C135.523 39.05 134.373 38.9 132.873 38.6C133.307 40.6667 133.657 42.9667 133.923 45.5C134.223 48 134.373 50.0667 134.373 51.7C134.373 55.3 133.79 58.05 132.623 59.95C131.457 61.85 129.923 62.8 128.023 62.8C125.623 62.8 123.907 61.1 122.873 57.7C121.873 54.3 121.373 49.1667 121.373 42.3C121.373 35.9 122.057 29.4167 123.423 22.85C124.823 16.25 126.723 10.8 129.123 6.5C131.557 2.16666 134.223 -2.86102e-06 137.123 -2.86102e-06C138.69 -2.86102e-06 139.907 0.699997 140.773 2.1C141.673 3.5 142.123 5.38333 142.123 7.75C142.123 15.5833 137.44 24.1167 128.073 33.35C127.74 36.6167 127.573 39.4833 127.573 41.95C127.573 45.3833 127.69 48.9 127.923 52.5C128.157 56.1333 128.54 57.95 129.073 57.95C130.073 57.95 130.573 56.2167 130.573 52.75C130.573 50.15 130.39 47.6333 130.023 45.2C129.69 42.7667 129.223 40.2 128.623 37.5C128.59 37.0667 128.723 36.5167 129.023 35.85C129.357 35.1833 129.757 34.6 130.223 34.1C130.69 33.6 131.107 33.35 131.473 33.35C132.14 33.35 132.94 33.3833 133.873 33.45C134.173 33.4833 134.523 33.5 134.923 33.5C136.257 33.5 137.74 33.3833 139.373 33.15C139.64 33.1167 139.923 33.0833 140.223 33.05C140.523 33.0167 140.823 33 141.123 33ZM136.073 4.95C135.473 4.95 134.723 5.96667 133.823 8C132.957 10.0333 132.09 12.7333 131.223 16.1C130.357 19.4333 129.607 22.9667 128.973 26.7C131.64 23.6667 133.69 20.5167 135.123 17.25C136.557 13.95 137.29 10.8667 137.323 8C137.323 5.96667 136.907 4.95 136.073 4.95ZM156.252 23.7C157.018 23.7 157.552 23.8 157.852 24C158.152 24.2 158.302 24.5333 158.302 25C158.302 25.8 157.868 28.65 157.002 33.55C156.235 38.25 155.785 41.0333 155.652 41.9C154.418 50.4667 152.718 57.25 150.552 62.25C148.385 67.25 145.502 69.75 141.902 69.75C140.202 69.75 138.818 69.2167 137.752 68.15C136.685 67.1167 136.152 65.75 136.152 64.05C136.152 62.4833 136.502 60.8833 137.202 59.25C137.935 57.6167 139.268 55.7333 141.202 53.6C143.168 51.5 145.935 49.0833 149.502 46.35L149.652 45.2C149.885 43.9667 150.152 42.2 150.452 39.9C149.785 42.3 148.852 44.1333 147.652 45.4C146.452 46.6333 145.185 47.25 143.852 47.25C142.352 47.25 141.118 46.5667 140.152 45.2C139.218 43.8 138.752 42.0667 138.752 40C138.752 37.5 138.918 35.2167 139.252 33.15C139.585 31.05 140.135 28.8333 140.902 26.5C141.235 25.5 141.702 24.7833 142.302 24.35C142.902 23.9167 143.852 23.7 145.152 23.7C145.885 23.7 146.385 23.8167 146.652 24.05C146.952 24.2833 147.102 24.6333 147.102 25.1C147.102 25.3667 146.918 26.2667 146.552 27.8C146.218 29.0333 145.952 30.15 145.752 31.15C145.485 32.5167 145.252 33.8333 145.052 35.1C144.852 36.3333 144.752 37.35 144.752 38.15C144.752 39.4167 145.102 40.05 145.802 40.05C146.302 40.05 146.918 39.55 147.652 38.55C148.418 37.55 149.218 36.0333 150.052 34C150.918 31.9667 151.752 29.4667 152.552 26.5C152.818 25.5 153.218 24.7833 153.752 24.35C154.318 23.9167 155.152 23.7 156.252 23.7ZM142.452 64.9C143.285 64.9 144.218 63.9333 145.252 62C146.285 60.0667 147.318 56.85 148.352 52.35C145.785 54.5167 143.918 56.4833 142.752 58.25C141.618 60.05 141.052 61.6167 141.052 62.95C141.052 63.5167 141.152 63.9833 141.352 64.35C141.585 64.7167 141.952 64.9 142.452 64.9Z" fill="black"/>
</svg>
